<svg class="marks" width="265" height="260" viewBox="0 0 265 260" version="1.1" xmlns="http://www.w3.org/2000/svg" xmlns:xlink="http://www.w3.org/1999/xlink"><g transform="translate(52,20)"><g class="mark-group role-frame root"><g transform="translate(0,0)"><path class="background" d="M0.5,0.5h200v200h-200Z" style="fill: none; stroke: #ddd;"></path><g><g class="mark-group role-axis"><g transform="translate(0.5,200.5)"><path class="background" d="M0,0h0v0h0Z" style="pointer-events: none; fill: none;"></path><g><g class="mark-rule role-axis-grid" style="pointer-events: none;"><line transform="translate(17,-200)" x2="0" y2="200" style="fill: none; stroke: #ddd; stroke-width: 1; opacity: 1;"></line><line transform="translate(50,-200)" x2="0" y2="200" style="fill: none; stroke: #ddd; stroke-width: 1; opacity: 1;"></line><line transform="translate(83,-200)" x2="0" y2="200" style="fill: none; stroke: #ddd; stroke-width: 1; opacity: 1;"></line><line transform="translate(117,-200)" x2="0" y2="200" style="fill: none; stroke: #ddd; stroke-width: 1; opacity: 1;"></line><line transform="translate(150,-200)" x2="0" y2="200" style="fill: none; stroke: #ddd; stroke-width: 1; opacity: 1;"></line><line transform="translate(183,-200)" x2="0" y2="200" style="fill: none; stroke: #ddd; stroke-width: 1; opacity: 1;"></line></g></g></g></g><g class="mark-group role-axis"><g transform="translate(0.5,0.5)"><path class="background" d="M0,0h0v0h0Z" style="pointer-events: none; fill: none;"></path><g><g class="mark-rule role-axis-grid" style="pointer-events: none;"><line transform="translate(0,180)" x2="200" y2="0" style="fill: none; stroke: #ddd; stroke-width: 1; opacity: 1;"></line><line transform="translate(0,130)" x2="200" y2="0" style="fill: none; stroke: #ddd; stroke-width: 1; opacity: 1;"></line><line transform="translate(0,80)" x2="200" y2="0" style="fill: none; stroke: #ddd; stroke-width: 1; opacity: 1;"></line><line transform="translate(0,30)" x2="200" y2="0" style="fill: none; stroke: #ddd; stroke-width: 1; opacity: 1;"></line></g></g></g></g><g class="mark-rect role-mark layer_0_marks"><path d="M-7.5,0h15v1h-15Z" style="fill: none; opacity: 0.7;"></path><path d="M9.155258955053618,0h15v1h-15Z" style="fill: none; opacity: 0.7;"></path><path d="M25.810517910107237,0h15v1h-15Z" style="fill: none; opacity: 0.7;"></path><path d="M42.46577686516085,0h15v1h-15Z" style="fill: none; opacity: 0.7;"></path><path d="M59.16666666666666,0h15v1h-15Z" style="fill: none; opacity: 0.7;"></path><path d="M75.82192562172028,0h15v1h-15Z" style="fill: none; opacity: 0.7;"></path><path d="M92.47718457677391,0h15v1h-15Z" style="fill: none; opacity: 0.7;"></path><path d="M109.1324435318275,0h15v1h-15Z" style="fill: none; opacity: 0.7;"></path><path d="M125.83333333333331,0h15v1h-15Z" style="fill: none; opacity: 0.7;"></path><path d="M142.48859228838694,0h15v1h-15Z" style="fill: none; opacity: 0.7;"></path><path d="M159.14385124344057,0h15v1h-15Z" style="fill: none; opacity: 0.7;"></path><path d="M192.5,0h15v1h-15Z" style="fill: none; opacity: 0.7;"></path></g><g class="mark-rect role-mark layer_1_marks"><path d="M-7.5,184.67241379310346h15v1h-15Z" style="fill: #4c78a8; opacity: 0.7;"></path><path d="M9.155258955053618,144.85714285714286h15v1h-15Z" style="fill: #4c78a8; opacity: 0.7;"></path><path d="M25.810517910107237,173.78571428571428h15v1h-15Z" style="fill: #4c78a8; opacity: 0.7;"></path><path d="M42.46577686516085,192.75h15v1h-15Z" style="fill: #4c78a8; opacity: 0.7;"></path><path d="M59.16666666666666,128.0185185185185h15v1h-15Z" style="fill: #4c78a8; opacity: 0.7;"></path><path d="M75.82192562172028,160.5h15v1h-15Z" style="fill: #4c78a8; opacity: 0.7;"></path><path d="M92.47718457677391,143.6176470588235h15v1h-15Z" style="fill: #4c78a8; opacity: 0.7;"></path><path d="M109.1324435318275,121.80803571428574h15v1h-15Z" style="fill: #4c78a8; opacity: 0.7;"></path><path d="M125.83333333333331,117.99305555555556h15v1h-15Z" style="fill: #4c78a8; opacity: 0.7;"></path><path d="M142.48859228838694,108.08534482758617h15v1h-15Z" style="fill: #4c78a8; opacity: 0.7;"></path><path d="M159.14385124344057,16.73706896551724h15v1h-15Z" style="fill: #4c78a8; opacity: 0.7;"></path><path d="M192.5,55.68208333333328h15v1h-15Z" style="fill: #4c78a8; opacity: 0.7;"></path></g><g class="mark-rule role-mark layer_2_marks"><line transform="translate(0,0)" x2="0" y2="185.17241379310346" style="fill: none;"></line><line transform="translate(16.65525895505362,0)" x2="0" y2="145.35714285714286" style="fill: none;"></line><line transform="translate(33.31051791010724,0)" x2="0" y2="174.28571428571428" style="fill: none;"></line><line transform="translate(49.96577686516085,0)" x2="0" y2="193.25" style="fill: none;"></line><line transform="translate(66.66666666666666,0)" x2="0" y2="128.5185185185185" style="fill: none;"></line><line transform="translate(83.32192562172028,0)" x2="0" y2="161" style="fill: none;"></line><line transform="translate(99.97718457677391,0)" x2="0" y2="144.1176470588235" style="fill: none;"></line><line transform="translate(116.6324435318275,0)" x2="0" y2="122.30803571428574" style="fill: none;"></line><line transform="translate(133.33333333333331,0)" x2="0" y2="118.49305555555556" style="fill: none;"></line><line transform="translate(149.98859228838694,0)" x2="0" y2="108.58534482758617" style="fill: none;"></line><line transform="translate(166.64385124344057,0)" x2="0" y2="17.23706896551724" style="fill: none;"></line><line transform="translate(200,0)" x2="0" y2="56.18208333333328" style="fill: none;"></line></g><g class="mark-group role-axis"><g transform="translate(0.5,200.5)"><path class="background" d="M0,0h0v0h0Z" style="pointer-events: none; fill: none;"></path><g><g class="mark-rule role-axis-tick" style="pointer-events: none;"><line transform="translate(17,0)" x2="0" y2="5" style="fill: none; stroke: #888; stroke-width: 1; opacity: 1;"></line><line transform="translate(50,0)" x2="0" y2="5" style="fill: none; stroke: #888; stroke-width: 1; opacity: 1;"></line><line transform="translate(83,0)" x2="0" y2="5" style="fill: none; stroke: #888; stroke-width: 1; opacity: 1;"></line><line transform="translate(117,0)" x2="0" y2="5" style="fill: none; stroke: #888; stroke-width: 1; opacity: 1;"></line><line transform="translate(150,0)" x2="0" y2="5" style="fill: none; stroke: #888; stroke-width: 1; opacity: 1;"></line><line transform="translate(183,0)" x2="0" y2="5" style="fill: none; stroke: #888; stroke-width: 1; opacity: 1;"></line></g><g class="mark-text role-axis-label" style="pointer-events: none;"><text text-anchor="middle" transform="translate(16.65525895505362,15)" style="font-family: sans-serif; font-size: 10px; fill: #000; opacity: 1;">1970</text><text text-anchor="middle" transform="translate(49.96577686516085,15)" style="font-family: sans-serif; font-size: 10px; fill: #000; opacity: 1;">1972</text><text text-anchor="middle" transform="translate(83.32192562172028,15)" style="font-family: sans-serif; font-size: 10px; fill: #000; opacity: 1;">1974</text><text text-anchor="middle" transform="translate(116.6324435318275,15)" style="font-family: sans-serif; font-size: 10px; fill: #000; opacity: 1;">1976</text><text text-anchor="middle" transform="translate(149.98859228838694,15)" style="font-family: sans-serif; font-size: 10px; fill: #000; opacity: 1;">1978</text><text text-anchor="middle" transform="translate(183.2991101984942,15)" style="font-family: sans-serif; font-size: 10px; fill: #000; opacity: 1;">1980</text></g><g class="mark-rule role-axis-domain" style="pointer-events: none;"><line transform="translate(0,0)" x2="200" y2="0" style="fill: none; stroke: #888; stroke-width: 1; opacity: 1;"></line></g><g class="mark-text role-axis-title" style="pointer-events: none;"><text text-anchor="middle" transform="translate(100,31)" style="font-family: sans-serif; font-size: 11px; font-weight: bold; fill: #000; opacity: 1;">Year (year)</text></g></g></g></g><g class="mark-group role-axis"><g transform="translate(0.5,0.5)"><path class="background" d="M0,0h0v0h0Z" style="pointer-events: none; fill: none;"></path><g><g class="mark-rule role-axis-tick" style="pointer-events: none;"><line transform="translate(0,180)" x2="-5" y2="0" style="fill: none; stroke: #888; stroke-width: 1; opacity: 1;"></line><line transform="translate(0,130)" x2="-5" y2="0" style="fill: none; stroke: #888; stroke-width: 1; opacity: 1;"></line><line transform="translate(0,80)" x2="-5" y2="0" style="fill: none; stroke: #888; stroke-width: 1; opacity: 1;"></line><line transform="translate(0,30)" x2="-5" y2="0" style="fill: none; stroke: #888; stroke-width: 1; opacity: 1;"></line></g><g class="mark-text role-axis-label" style="pointer-events: none;"><text text-anchor="end" transform="translate(-7,183)" style="font-family: sans-serif; font-size: 10px; fill: #000; opacity: 1;">20</text><text text-anchor="end" transform="translate(-7,133)" style="font-family: sans-serif; font-size: 10px; fill: #000; opacity: 1;">25</text><text text-anchor="end" transform="translate(-7,83)" style="font-family: sans-serif; font-size: 10px; fill: #000; opacity: 1;">30</text><text text-anchor="end" transform="translate(-7,33)" style="font-family: sans-serif; font-size: 10px; fill: #000; opacity: 1;">35</text></g><g class="mark-rule role-axis-domain" style="pointer-events: none;"><line transform="translate(0,200)" x2="0" y2="-200" style="fill: none; stroke: #888; stroke-width: 1; opacity: 1;"></line></g><g class="mark-text role-axis-title" style="pointer-events: none;"><text text-anchor="middle" transform="translate(-34,100) rotate(-90) translate(0,-2)" style="font-family: sans-serif; font-size: 11px; font-weight: bold; fill: #000; opacity: 1;">Miles per Gallon (95% CIs)</text></g></g></g></g></g></g></g></g></svg>